<mxfile host="app.diagrams.net" modified="2024-06-19T15:29:16.608Z" agent="Mozilla/5.0 (Windows NT 10.0; Win64; x64) AppleWebKit/537.36 (KHTML, like Gecko) Chrome/126.0.0.0 Safari/537.36" etag="L-2TJ11CgmuHOy_j5pYA" version="24.5.5" type="google">
  <diagram name="Page-1" id="CqNwt3TztA1D4tDZatW8">
    <mxGraphModel grid="1" page="1" gridSize="10" guides="1" tooltips="1" connect="1" arrows="1" fold="1" pageScale="1" pageWidth="827" pageHeight="1169" math="0" shadow="0">
      <root>
        <mxCell id="0" />
        <mxCell id="1" parent="0" />
        <mxCell id="h7EgRy8KijaexqdkXfog-39" value="Layers" parent="0" />
        <mxCell id="h7EgRy8KijaexqdkXfog-40" value="" style="rounded=0;whiteSpace=wrap;html=1;" vertex="1" parent="h7EgRy8KijaexqdkXfog-39">
          <mxGeometry x="-200" y="20" width="2130" height="1070" as="geometry" />
        </mxCell>
        <mxCell id="h7EgRy8KijaexqdkXfog-41" value="Common layer" style="text;html=1;align=center;verticalAlign=middle;whiteSpace=wrap;rounded=0;fontSize=27;" vertex="1" parent="h7EgRy8KijaexqdkXfog-39">
          <mxGeometry x="-180" y="40" width="200" height="30" as="geometry" />
        </mxCell>
        <mxCell id="h7EgRy8KijaexqdkXfog-70" value="" style="rounded=0;whiteSpace=wrap;html=1;" vertex="1" parent="h7EgRy8KijaexqdkXfog-39">
          <mxGeometry x="-190" y="1900" width="4660" height="2440" as="geometry" />
        </mxCell>
        <mxCell id="h7EgRy8KijaexqdkXfog-71" value="Application layer" style="text;html=1;align=center;verticalAlign=middle;whiteSpace=wrap;rounded=0;fontSize=27;" vertex="1" parent="h7EgRy8KijaexqdkXfog-39">
          <mxGeometry x="-170" y="1920" width="230" height="30" as="geometry" />
        </mxCell>
        <mxCell id="h7EgRy8KijaexqdkXfog-30" value="Blokovi" parent="0" />
        <mxCell id="h7EgRy8KijaexqdkXfog-42" value="" style="rounded=0;whiteSpace=wrap;html=1;fillColor=#f5f5f5;fontColor=#333333;strokeColor=#666666;" vertex="1" parent="h7EgRy8KijaexqdkXfog-30">
          <mxGeometry x="220" y="90" width="320" height="190" as="geometry" />
        </mxCell>
        <mxCell id="h7EgRy8KijaexqdkXfog-43" value="" style="rounded=0;whiteSpace=wrap;html=1;fillColor=#f5f5f5;fontColor=#333333;strokeColor=#666666;" vertex="1" parent="h7EgRy8KijaexqdkXfog-30">
          <mxGeometry x="780" y="80" width="670" height="290" as="geometry" />
        </mxCell>
        <mxCell id="h7EgRy8KijaexqdkXfog-44" value="" style="rounded=0;whiteSpace=wrap;html=1;fillColor=#f5f5f5;fontColor=#333333;strokeColor=#666666;" vertex="1" parent="h7EgRy8KijaexqdkXfog-30">
          <mxGeometry x="-70" y="480" width="700" height="370" as="geometry" />
        </mxCell>
        <mxCell id="h7EgRy8KijaexqdkXfog-45" value="" style="rounded=0;whiteSpace=wrap;html=1;fillColor=#f5f5f5;fontColor=#333333;strokeColor=#666666;glass=0;shadow=0;" vertex="1" parent="h7EgRy8KijaexqdkXfog-30">
          <mxGeometry x="780" y="490" width="600" height="260" as="geometry" />
        </mxCell>
        <mxCell id="zdqjPkPiRwQ45EChuNNf-1" value="" style="rounded=0;whiteSpace=wrap;html=1;fillColor=#f5f5f5;fontColor=#333333;strokeColor=#666666;" vertex="1" parent="h7EgRy8KijaexqdkXfog-30">
          <mxGeometry x="-140" y="1990" width="420" height="200" as="geometry" />
        </mxCell>
        <mxCell id="zdqjPkPiRwQ45EChuNNf-3" value="Exceptions" style="text;html=1;align=center;verticalAlign=middle;whiteSpace=wrap;rounded=0;" vertex="1" parent="h7EgRy8KijaexqdkXfog-30">
          <mxGeometry x="-130" y="2000" width="70" height="30" as="geometry" />
        </mxCell>
        <mxCell id="zdqjPkPiRwQ45EChuNNf-5" value="" style="rounded=0;whiteSpace=wrap;html=1;fillColor=#f5f5f5;fontColor=#333333;strokeColor=#666666;" vertex="1" parent="h7EgRy8KijaexqdkXfog-30">
          <mxGeometry x="450" y="1990" width="2780" height="1140" as="geometry" />
        </mxCell>
        <mxCell id="zdqjPkPiRwQ45EChuNNf-6" value="BusinessLogic" style="text;html=1;align=center;verticalAlign=middle;whiteSpace=wrap;rounded=0;" vertex="1" parent="h7EgRy8KijaexqdkXfog-30">
          <mxGeometry x="460" y="2000" width="90" height="30" as="geometry" />
        </mxCell>
        <mxCell id="zdqjPkPiRwQ45EChuNNf-7" value="Blokovi-2" parent="0" />
        <mxCell id="zdqjPkPiRwQ45EChuNNf-8" value="" style="rounded=0;whiteSpace=wrap;html=1;fillColor=#E3E3E3;fontColor=#333333;strokeColor=#666666;" vertex="1" parent="zdqjPkPiRwQ45EChuNNf-7">
          <mxGeometry x="490" y="2050" width="1850" height="420" as="geometry" />
        </mxCell>
        <mxCell id="zdqjPkPiRwQ45EChuNNf-9" value="_Base" style="text;html=1;align=center;verticalAlign=middle;whiteSpace=wrap;rounded=0;" vertex="1" parent="zdqjPkPiRwQ45EChuNNf-7">
          <mxGeometry x="500" y="2060" width="60" height="30" as="geometry" />
        </mxCell>
        <mxCell id="zdqjPkPiRwQ45EChuNNf-37" value="" style="rounded=0;whiteSpace=wrap;html=1;fillColor=#E3E3E3;fontColor=#333333;strokeColor=#666666;" vertex="1" parent="zdqjPkPiRwQ45EChuNNf-7">
          <mxGeometry x="490" y="2540" width="1410" height="420" as="geometry" />
        </mxCell>
        <mxCell id="zdqjPkPiRwQ45EChuNNf-38" value="_Behaviours" style="text;html=1;align=center;verticalAlign=middle;whiteSpace=wrap;rounded=0;" vertex="1" parent="zdqjPkPiRwQ45EChuNNf-7">
          <mxGeometry x="500" y="2550" width="90" height="30" as="geometry" />
        </mxCell>
        <mxCell id="h7EgRy8KijaexqdkXfog-46" value="Entities" parent="0" />
        <mxCell id="h7EgRy8KijaexqdkXfog-47" value="&lt;p style=&quot;margin:0px;margin-top:4px;text-align:center;&quot;&gt;&lt;b&gt;+(s) Constants&lt;/b&gt;&lt;/p&gt;&lt;hr size=&quot;1&quot; style=&quot;border-style:solid;&quot;&gt;&lt;p style=&quot;margin:0px;margin-left:4px;&quot;&gt;+ SOLUTION_NAME: string&lt;/p&gt;&lt;p style=&quot;margin:0px;margin-left:4px;&quot;&gt;+ TOKEN_EXPIRATION_TIME: int&lt;/p&gt;&lt;p style=&quot;margin:0px;margin-left:4px;&quot;&gt;&lt;br&gt;&lt;/p&gt;&lt;p style=&quot;margin:0px;margin-left:4px;&quot;&gt;// Claims&lt;/p&gt;&lt;p style=&quot;margin:0px;margin-left:4px;&quot;&gt;&lt;br&gt;&lt;/p&gt;&lt;p style=&quot;margin:0px;margin-left:4px;&quot;&gt;+ CLAIM_ID: string&lt;/p&gt;&lt;p style=&quot;margin:0px;margin-left:4px;&quot;&gt;+ CLAIM_USERNAME: string&lt;/p&gt;&lt;p style=&quot;margin:0px;margin-left:4px;&quot;&gt;+ CLAIM_ROLES: string&lt;/p&gt;&lt;p style=&quot;margin:0px;margin-left:4px;&quot;&gt;+ CLAIM_EMAIL: string&lt;/p&gt;&lt;hr size=&quot;1&quot; style=&quot;border-style:solid;&quot;&gt;&lt;p style=&quot;margin:0px;margin-left:4px;&quot;&gt;&lt;br&gt;&lt;/p&gt;" style="verticalAlign=top;align=left;overflow=fill;html=1;whiteSpace=wrap;" vertex="1" parent="h7EgRy8KijaexqdkXfog-46">
          <mxGeometry x="-80" y="90" width="220" height="180" as="geometry" />
        </mxCell>
        <mxCell id="h7EgRy8KijaexqdkXfog-48" value="Resources" style="text;html=1;align=center;verticalAlign=middle;whiteSpace=wrap;rounded=0;" vertex="1" parent="h7EgRy8KijaexqdkXfog-46">
          <mxGeometry x="230" y="100" width="60" height="30" as="geometry" />
        </mxCell>
        <mxCell id="h7EgRy8KijaexqdkXfog-49" value="&lt;p style=&quot;margin:0px;margin-top:4px;text-align:center;&quot;&gt;&lt;b&gt;+(s) ResourceValidation&lt;/b&gt;&lt;/p&gt;&lt;hr size=&quot;1&quot; style=&quot;border-style:solid;&quot;&gt;&lt;p style=&quot;margin:0px;margin-left:4px;&quot;&gt;+ Record_Doesnt_Exist: string&lt;/p&gt;&lt;hr size=&quot;1&quot; style=&quot;border-style:solid;&quot;&gt;&lt;p style=&quot;margin:0px;margin-left:4px;&quot;&gt;&lt;br&gt;&lt;/p&gt;" style="verticalAlign=top;align=left;overflow=fill;html=1;whiteSpace=wrap;" vertex="1" parent="h7EgRy8KijaexqdkXfog-46">
          <mxGeometry x="240" y="150" width="230" height="60" as="geometry" />
        </mxCell>
        <mxCell id="h7EgRy8KijaexqdkXfog-50" value="Interfaces" style="text;html=1;align=center;verticalAlign=middle;whiteSpace=wrap;rounded=0;" vertex="1" parent="h7EgRy8KijaexqdkXfog-46">
          <mxGeometry x="790" y="90" width="60" height="30" as="geometry" />
        </mxCell>
        <mxCell id="h7EgRy8KijaexqdkXfog-53" value="&lt;p style=&quot;margin:0px;margin-top:4px;text-align:center;&quot;&gt;&lt;/p&gt;&lt;p style=&quot;margin:0px;margin-left:4px;&quot;&gt;Id: Guid&lt;/p&gt;&lt;p style=&quot;margin:0px;margin-left:4px;&quot;&gt;Email: string&lt;/p&gt;&lt;p style=&quot;margin:0px;margin-left:4px;&quot;&gt;Username: string&lt;/p&gt;&lt;p style=&quot;margin:0px;margin-left:4px;&quot;&gt;Roles: List&amp;lt;eSystemRole&amp;gt;&lt;/p&gt;&lt;p style=&quot;margin:0px;margin-left:4px;&quot;&gt;IsAuthenticated: bool&lt;/p&gt;&lt;p style=&quot;margin:0px;margin-left:4px;&quot;&gt;&lt;br&gt;&lt;/p&gt;&lt;hr size=&quot;1&quot; style=&quot;border-style:solid;&quot;&gt;&lt;p style=&quot;margin:0px;margin-left:4px;&quot;&gt;HasRole(List&amp;lt;eSystemRole&amp;gt;): bool&lt;/p&gt;" style="verticalAlign=top;align=left;overflow=fill;html=1;whiteSpace=wrap;fillColor=#dae8fc;strokeColor=#6c8ebf;" vertex="1" parent="h7EgRy8KijaexqdkXfog-46">
          <mxGeometry x="810" y="180" width="230" height="150" as="geometry" />
        </mxCell>
        <mxCell id="h7EgRy8KijaexqdkXfog-54" value="&lt;p style=&quot;margin:0px;margin-top:4px;text-align:center;&quot;&gt;&lt;br&gt;&lt;/p&gt;&lt;hr size=&quot;1&quot; style=&quot;border-style:solid;&quot;&gt;&lt;p style=&quot;margin:0px;margin-left:4px;&quot;&gt;LogException(Exception): Guid&lt;/p&gt;" style="verticalAlign=top;align=left;overflow=fill;html=1;whiteSpace=wrap;fillColor=#dae8fc;strokeColor=#6c8ebf;" vertex="1" parent="h7EgRy8KijaexqdkXfog-46">
          <mxGeometry x="1070" y="180" width="230" height="90" as="geometry" />
        </mxCell>
        <mxCell id="h7EgRy8KijaexqdkXfog-55" value="Extensions" style="text;html=1;align=center;verticalAlign=middle;whiteSpace=wrap;rounded=0;" vertex="1" parent="h7EgRy8KijaexqdkXfog-46">
          <mxGeometry x="-60" y="490" width="60" height="30" as="geometry" />
        </mxCell>
        <mxCell id="h7EgRy8KijaexqdkXfog-56" value="&lt;p style=&quot;margin:0px;margin-top:4px;text-align:center;&quot;&gt;&lt;b&gt;+(s) StringExtensions&lt;/b&gt;&lt;/p&gt;&lt;hr size=&quot;1&quot; style=&quot;border-style:solid;&quot;&gt;&lt;p style=&quot;margin:0px;margin-left:4px;&quot;&gt;&lt;br&gt;&lt;/p&gt;&lt;hr size=&quot;1&quot; style=&quot;border-style:solid;&quot;&gt;&amp;nbsp;+ HasValue(this string): bool&lt;br&gt;&lt;p style=&quot;margin:0px;margin-left:4px;&quot;&gt;+ AppendArgument(this string, string): string&lt;/p&gt;" style="verticalAlign=top;align=left;overflow=fill;html=1;whiteSpace=wrap;" vertex="1" parent="h7EgRy8KijaexqdkXfog-46">
          <mxGeometry x="-40" y="540" width="270" height="100" as="geometry" />
        </mxCell>
        <mxCell id="h7EgRy8KijaexqdkXfog-57" value="&lt;p style=&quot;margin:0px;margin-top:4px;text-align:center;&quot;&gt;&lt;b&gt;+(s) EnumExtensions&lt;/b&gt;&lt;/p&gt;&lt;hr size=&quot;1&quot; style=&quot;border-style:solid;&quot;&gt;&lt;p style=&quot;margin:0px;margin-left:4px;&quot;&gt;&lt;br&gt;&lt;/p&gt;&lt;hr size=&quot;1&quot; style=&quot;border-style:solid;&quot;&gt;&amp;nbsp;+ GetEnumList&amp;lt;T&amp;gt;(this string): List&amp;lt;T&amp;gt;" style="verticalAlign=top;align=left;overflow=fill;html=1;whiteSpace=wrap;" vertex="1" parent="h7EgRy8KijaexqdkXfog-46">
          <mxGeometry x="270" y="540" width="270" height="90" as="geometry" />
        </mxCell>
        <mxCell id="h7EgRy8KijaexqdkXfog-58" value="&lt;p style=&quot;margin:0px;margin-top:4px;text-align:center;&quot;&gt;&lt;b&gt;+(s) BoolExtensions&lt;/b&gt;&lt;/p&gt;&lt;hr size=&quot;1&quot; style=&quot;border-style:solid;&quot;&gt;&lt;p style=&quot;margin:0px;margin-left:4px;&quot;&gt;&lt;br&gt;&lt;/p&gt;&lt;hr size=&quot;1&quot; style=&quot;border-style:solid;&quot;&gt;&amp;nbsp;+ In&amp;lt;T&amp;gt;(this T, T[]): bool&lt;div&gt;&amp;nbsp;+ In&amp;lt;T&amp;gt;(this T, List&amp;lt;T&amp;gt;): bool&lt;/div&gt;" style="verticalAlign=top;align=left;overflow=fill;html=1;whiteSpace=wrap;" vertex="1" parent="h7EgRy8KijaexqdkXfog-46">
          <mxGeometry x="-40" y="680" width="270" height="100" as="geometry" />
        </mxCell>
        <mxCell id="h7EgRy8KijaexqdkXfog-59" value="Enums" style="text;html=1;align=center;verticalAlign=middle;whiteSpace=wrap;rounded=0;" vertex="1" parent="h7EgRy8KijaexqdkXfog-46">
          <mxGeometry x="790" y="500" width="60" height="30" as="geometry" />
        </mxCell>
        <mxCell id="h7EgRy8KijaexqdkXfog-60" value="«interface»&lt;br&gt;&lt;b&gt;IIdentityUser&lt;/b&gt;" style="html=1;whiteSpace=wrap;fillColor=#dae8fc;strokeColor=#6c8ebf;" vertex="1" parent="h7EgRy8KijaexqdkXfog-46">
          <mxGeometry x="810" y="130" width="230" height="50" as="geometry" />
        </mxCell>
        <mxCell id="h7EgRy8KijaexqdkXfog-61" value="«interface»&lt;br&gt;&lt;b&gt;IExceptionLogger&lt;/b&gt;" style="html=1;whiteSpace=wrap;fillColor=#dae8fc;strokeColor=#6c8ebf;" vertex="1" parent="h7EgRy8KijaexqdkXfog-46">
          <mxGeometry x="1070" y="130" width="230" height="50" as="geometry" />
        </mxCell>
        <mxCell id="h7EgRy8KijaexqdkXfog-62" value="«enumeration»&lt;br&gt;&lt;b&gt;eSystemRole&lt;/b&gt;" style="html=1;whiteSpace=wrap;fillColor=#d5e8d4;strokeColor=#82b366;" vertex="1" parent="h7EgRy8KijaexqdkXfog-46">
          <mxGeometry x="810" y="550" width="150" height="50" as="geometry" />
        </mxCell>
        <mxCell id="h7EgRy8KijaexqdkXfog-63" value="&lt;p style=&quot;margin:0px;margin-top:4px;text-align:center;&quot;&gt;&lt;/p&gt;&lt;p style=&quot;margin:0px;margin-left:4px;&quot;&gt;Admin&lt;/p&gt;&lt;p style=&quot;margin:0px;margin-left:4px;&quot;&gt;UserAdmin&lt;/p&gt;&lt;p style=&quot;margin:0px;margin-left:4px;&quot;&gt;Moderator&lt;/p&gt;&lt;p style=&quot;margin:0px;margin-left:4px;&quot;&gt;Member&lt;/p&gt;" style="verticalAlign=top;align=left;overflow=fill;html=1;whiteSpace=wrap;fillColor=#d5e8d4;strokeColor=#82b366;" vertex="1" parent="h7EgRy8KijaexqdkXfog-46">
          <mxGeometry x="810" y="600" width="150" height="80" as="geometry" />
        </mxCell>
        <mxCell id="zdqjPkPiRwQ45EChuNNf-4" value="&lt;p style=&quot;margin:0px;margin-top:4px;text-align:center;&quot;&gt;&lt;b&gt;+ FluentValidationException&lt;/b&gt;&lt;/p&gt;&lt;hr size=&quot;1&quot; style=&quot;border-style:solid;&quot;&gt;&lt;p style=&quot;margin:0px;margin-left:4px;&quot;&gt;+ Failures: IDictionary&amp;lt;string, string[]&amp;gt;&lt;/p&gt;&lt;p style=&quot;margin:0px;margin-left:4px;&quot;&gt;+ Type: string&lt;/p&gt;&lt;p style=&quot;margin:0px;margin-left:4px;&quot;&gt;&lt;br&gt;&lt;/p&gt;&lt;hr size=&quot;1&quot; style=&quot;border-style:solid;&quot;&gt;&lt;p style=&quot;margin:0px;margin-left:4px;&quot;&gt;&lt;br&gt;&lt;/p&gt;" style="verticalAlign=top;align=left;overflow=fill;html=1;whiteSpace=wrap;" vertex="1" parent="h7EgRy8KijaexqdkXfog-46">
          <mxGeometry x="-110" y="2040" width="260" height="90" as="geometry" />
        </mxCell>
        <mxCell id="zdqjPkPiRwQ45EChuNNf-11" value="&lt;p style=&quot;margin:0px;margin-top:4px;text-align:center;&quot;&gt;&lt;b&gt;+ BaseCommand&lt;/b&gt;&lt;/p&gt;&lt;hr size=&quot;1&quot; style=&quot;border-style:solid;&quot;&gt;&lt;p style=&quot;margin:0px;margin-left:4px;&quot;&gt;&lt;br&gt;&lt;/p&gt;&lt;p style=&quot;margin:0px;margin-left:4px;&quot;&gt;&lt;br&gt;&lt;/p&gt;&lt;hr size=&quot;1&quot; style=&quot;border-style:solid;&quot;&gt;&lt;p style=&quot;margin:0px;margin-left:4px;&quot;&gt;&lt;br&gt;&lt;/p&gt;" style="verticalAlign=top;align=left;overflow=fill;html=1;whiteSpace=wrap;" vertex="1" parent="h7EgRy8KijaexqdkXfog-46">
          <mxGeometry x="520" y="2120" width="260" height="40" as="geometry" />
        </mxCell>
        <mxCell id="zdqjPkPiRwQ45EChuNNf-12" value="&lt;p style=&quot;margin:0px;margin-top:4px;text-align:center;&quot;&gt;&lt;b&gt;+ BaseCommand&amp;lt;TResponse&amp;gt;&lt;/b&gt;&lt;/p&gt;&lt;hr size=&quot;1&quot; style=&quot;border-style:solid;&quot;&gt;&lt;p style=&quot;margin:0px;margin-left:4px;&quot;&gt;&lt;br&gt;&lt;/p&gt;&lt;p style=&quot;margin:0px;margin-left:4px;&quot;&gt;&lt;br&gt;&lt;/p&gt;&lt;hr size=&quot;1&quot; style=&quot;border-style:solid;&quot;&gt;&lt;p style=&quot;margin:0px;margin-left:4px;&quot;&gt;&lt;br&gt;&lt;/p&gt;" style="verticalAlign=top;align=left;overflow=fill;html=1;whiteSpace=wrap;" vertex="1" parent="h7EgRy8KijaexqdkXfog-46">
          <mxGeometry x="520" y="2160" width="260" height="40" as="geometry" />
        </mxCell>
        <mxCell id="zdqjPkPiRwQ45EChuNNf-13" value="&lt;p style=&quot;margin:0px;margin-top:4px;text-align:center;&quot;&gt;&lt;/p&gt;&lt;p style=&quot;margin:0px;margin-left:4px;&quot;&gt;&lt;br&gt;&lt;/p&gt;&lt;p style=&quot;margin:0px;margin-left:4px;&quot;&gt;&lt;br&gt;&lt;/p&gt;&lt;hr size=&quot;1&quot; style=&quot;border-style:solid;&quot;&gt;&lt;p style=&quot;margin:0px;margin-left:4px;&quot;&gt;&lt;br&gt;&lt;/p&gt;" style="verticalAlign=top;align=left;overflow=fill;html=1;whiteSpace=wrap;" vertex="1" parent="h7EgRy8KijaexqdkXfog-46">
          <mxGeometry x="830" y="2170" width="330" height="20" as="geometry" />
        </mxCell>
        <mxCell id="zdqjPkPiRwQ45EChuNNf-14" value="&lt;p style=&quot;margin:0px;margin-top:4px;text-align:center;&quot;&gt;&lt;/p&gt;&lt;p style=&quot;margin:0px;margin-left:4px;&quot;&gt;&lt;br&gt;&lt;/p&gt;&lt;p style=&quot;margin:0px;margin-left:4px;&quot;&gt;&lt;br&gt;&lt;/p&gt;&lt;hr size=&quot;1&quot; style=&quot;border-style:solid;&quot;&gt;&lt;p style=&quot;margin:0px;margin-left:4px;&quot;&gt;&lt;br&gt;&lt;/p&gt;" style="verticalAlign=top;align=left;overflow=fill;html=1;whiteSpace=wrap;" vertex="1" parent="h7EgRy8KijaexqdkXfog-46">
          <mxGeometry x="830" y="2240" width="330" height="20" as="geometry" />
        </mxCell>
        <mxCell id="zdqjPkPiRwQ45EChuNNf-15" value="«abstract»&lt;br&gt;&lt;b&gt;+ BaseCommandHandler&amp;lt;TCommand&amp;gt;&lt;/b&gt;" style="html=1;whiteSpace=wrap;" vertex="1" parent="h7EgRy8KijaexqdkXfog-46">
          <mxGeometry x="830" y="2120" width="330" height="50" as="geometry" />
        </mxCell>
        <mxCell id="zdqjPkPiRwQ45EChuNNf-16" value="«abstract»&lt;br&gt;&lt;b&gt;+ BaseCommandHandler&amp;lt;TCommand, TResponse&amp;gt;&lt;/b&gt;" style="html=1;whiteSpace=wrap;" vertex="1" parent="h7EgRy8KijaexqdkXfog-46">
          <mxGeometry x="830" y="2190" width="330" height="50" as="geometry" />
        </mxCell>
        <mxCell id="zdqjPkPiRwQ45EChuNNf-17" value="«abstract»&lt;br&gt;&lt;b&gt;+ BaseHandler.OneWay&amp;lt;TRequest&amp;gt;&lt;/b&gt;" style="html=1;whiteSpace=wrap;" vertex="1" parent="h7EgRy8KijaexqdkXfog-46">
          <mxGeometry x="1250" y="2120" width="410" height="50" as="geometry" />
        </mxCell>
        <mxCell id="zdqjPkPiRwQ45EChuNNf-18" value="&lt;p style=&quot;margin:0px;margin-top:4px;text-align:center;&quot;&gt;&lt;/p&gt;&lt;p style=&quot;margin:0px;margin-left:4px;&quot;&gt;&lt;br&gt;&lt;/p&gt;&lt;hr size=&quot;1&quot; style=&quot;border-style:solid;&quot;&gt;&lt;p style=&quot;margin:0px;margin-left:4px;&quot;&gt;+ (a) Handle(TRequest, CancellationToken): Task&lt;/p&gt;&lt;p style=&quot;margin:0px;margin-left:4px;&quot;&gt;# TryRun(Action, Ilogger): bool&lt;/p&gt;&lt;p style=&quot;margin:0px;margin-left:4px;&quot;&gt;# TryRunAsync(Func&amp;lt;Task&amp;gt;, Ilogger): Task&amp;lt;bool&amp;gt;&lt;/p&gt;&lt;p style=&quot;margin:0px;margin-left:4px;&quot;&gt;# CheckUserAuthorization(IIdentityUser, params eSystemRole[]): void&lt;/p&gt;" style="verticalAlign=top;align=left;overflow=fill;html=1;whiteSpace=wrap;" vertex="1" parent="h7EgRy8KijaexqdkXfog-46">
          <mxGeometry x="1250" y="2170" width="410" height="120" as="geometry" />
        </mxCell>
        <mxCell id="zdqjPkPiRwQ45EChuNNf-19" value="«abstract»&lt;br&gt;&lt;b&gt;+ BaseHandler.TwoWay&amp;lt;TRequest, TResponse&amp;gt;&lt;/b&gt;" style="html=1;whiteSpace=wrap;" vertex="1" parent="h7EgRy8KijaexqdkXfog-46">
          <mxGeometry x="1760" y="2120" width="410" height="50" as="geometry" />
        </mxCell>
        <mxCell id="zdqjPkPiRwQ45EChuNNf-20" value="&lt;p style=&quot;margin:0px;margin-top:4px;text-align:center;&quot;&gt;&lt;/p&gt;&lt;p style=&quot;margin:0px;margin-left:4px;&quot;&gt;# (r) _mediator: IMediator&lt;/p&gt;&lt;p style=&quot;margin:0px;margin-left:4px;&quot;&gt;# (r) _mapper: IMapper&lt;/p&gt;&lt;p style=&quot;margin:0px;margin-left:4px;&quot;&gt;# _identityUser: IIdentityUser&lt;/p&gt;&lt;p style=&quot;margin:0px;margin-left:4px;&quot;&gt;# _logger: ILogger&lt;/p&gt;&lt;p style=&quot;margin:0px;margin-left:4px;&quot;&gt;&lt;br&gt;&lt;/p&gt;&lt;hr size=&quot;1&quot; style=&quot;border-style:solid;&quot;&gt;&lt;p style=&quot;margin:0px;margin-left:4px;&quot;&gt;+ (a) Handle(TRequest, CancellationToken): Task&lt;/p&gt;&lt;p style=&quot;margin:0px;margin-left:4px;&quot;&gt;# TryRun(Action, Ilogger): bool&lt;/p&gt;&lt;p style=&quot;margin:0px;margin-left:4px;&quot;&gt;# TryRunAsync(Func&amp;lt;Task&amp;gt;, Ilogger): Task&amp;lt;bool&amp;gt;&lt;/p&gt;&lt;p style=&quot;margin:0px;margin-left:4px;&quot;&gt;# CheckUserAuthorization(IIdentityUser, params eSystemRole[]): void&lt;/p&gt;" style="verticalAlign=top;align=left;overflow=fill;html=1;whiteSpace=wrap;" vertex="1" parent="h7EgRy8KijaexqdkXfog-46">
          <mxGeometry x="1760" y="2170" width="410" height="170" as="geometry" />
        </mxCell>
        <mxCell id="zdqjPkPiRwQ45EChuNNf-33" value="&lt;p style=&quot;margin:0px;margin-top:4px;text-align:center;&quot;&gt;&lt;b&gt;+ BaseQuery&amp;lt;TResponse&amp;gt;&lt;/b&gt;&lt;/p&gt;&lt;hr size=&quot;1&quot; style=&quot;border-style:solid;&quot;&gt;&lt;p style=&quot;margin:0px;margin-left:4px;&quot;&gt;&lt;br&gt;&lt;/p&gt;&lt;p style=&quot;margin:0px;margin-left:4px;&quot;&gt;&lt;br&gt;&lt;/p&gt;&lt;hr size=&quot;1&quot; style=&quot;border-style:solid;&quot;&gt;&lt;p style=&quot;margin:0px;margin-left:4px;&quot;&gt;&lt;br&gt;&lt;/p&gt;" style="verticalAlign=top;align=left;overflow=fill;html=1;whiteSpace=wrap;" vertex="1" parent="h7EgRy8KijaexqdkXfog-46">
          <mxGeometry x="520" y="2320" width="260" height="40" as="geometry" />
        </mxCell>
        <mxCell id="zdqjPkPiRwQ45EChuNNf-35" value="«abstract»&lt;br&gt;&lt;b&gt;+ BaseQueryHandler&amp;lt;TQuery, TResponse&amp;gt;&lt;/b&gt;" style="html=1;whiteSpace=wrap;" vertex="1" parent="h7EgRy8KijaexqdkXfog-46">
          <mxGeometry x="830" y="2320" width="330" height="50" as="geometry" />
        </mxCell>
        <mxCell id="zdqjPkPiRwQ45EChuNNf-36" value="&lt;p style=&quot;margin:0px;margin-top:4px;text-align:center;&quot;&gt;&lt;/p&gt;&lt;p style=&quot;margin:0px;margin-left:4px;&quot;&gt;&lt;br&gt;&lt;/p&gt;&lt;p style=&quot;margin:0px;margin-left:4px;&quot;&gt;&lt;br&gt;&lt;/p&gt;&lt;hr size=&quot;1&quot; style=&quot;border-style:solid;&quot;&gt;&lt;p style=&quot;margin:0px;margin-left:4px;&quot;&gt;&lt;br&gt;&lt;/p&gt;" style="verticalAlign=top;align=left;overflow=fill;html=1;whiteSpace=wrap;" vertex="1" parent="h7EgRy8KijaexqdkXfog-46">
          <mxGeometry x="830" y="2370" width="330" height="20" as="geometry" />
        </mxCell>
        <mxCell id="zdqjPkPiRwQ45EChuNNf-39" value="&lt;p style=&quot;margin:0px;margin-top:4px;text-align:center;&quot;&gt;&lt;b&gt;+ LoggingBehavior&amp;lt;TRequest, TResponse&amp;gt;&lt;/b&gt;&lt;/p&gt;&lt;hr size=&quot;1&quot; style=&quot;border-style:solid;&quot;&gt;&lt;p style=&quot;margin:0px;margin-left:4px;&quot;&gt;&lt;span style=&quot;background-color: initial;&quot;&gt;- (r) _logger: ILogger&amp;lt;LoggingBehavior&amp;lt;TRequest, TResponse&amp;gt;&amp;gt;&lt;/span&gt;&lt;br&gt;&lt;/p&gt;&lt;p style=&quot;margin:0px;margin-left:4px;&quot;&gt;&lt;br&gt;&lt;/p&gt;&lt;hr size=&quot;1&quot; style=&quot;border-style:solid;&quot;&gt;&lt;p style=&quot;margin:0px;margin-left:4px;&quot;&gt;+ Handle(TRequest, RequestHandlerDelegate&amp;lt;TResponse&amp;gt;, CancellationToken): Task&amp;lt;TResponse&amp;gt;&lt;/p&gt;" style="verticalAlign=top;align=left;overflow=fill;html=1;whiteSpace=wrap;" vertex="1" parent="h7EgRy8KijaexqdkXfog-46">
          <mxGeometry x="530" y="2620" width="580" height="110" as="geometry" />
        </mxCell>
        <mxCell id="zdqjPkPiRwQ45EChuNNf-40" value="&lt;p style=&quot;margin:0px;margin-top:4px;text-align:center;&quot;&gt;&lt;b&gt;+ PerformanceMonitoringBehavior&amp;lt;TRequest, TResponse&amp;gt;&lt;/b&gt;&lt;/p&gt;&lt;hr size=&quot;1&quot; style=&quot;border-style:solid;&quot;&gt;&lt;p style=&quot;margin:0px;margin-left:4px;&quot;&gt;- THRESHOLD: int&lt;/p&gt;&lt;p style=&quot;margin:0px;margin-left:4px;&quot;&gt;- (r) _logger: ILogger&amp;lt;PerformanceMonitoringBehavior&amp;lt;TRequest, TResponse&amp;gt;&amp;gt;&lt;/p&gt;&lt;p style=&quot;margin:0px;margin-left:4px;&quot;&gt;&lt;br&gt;&lt;/p&gt;&lt;hr size=&quot;1&quot; style=&quot;border-style:solid;&quot;&gt;&lt;p style=&quot;margin:0px;margin-left:4px;&quot;&gt;+ Handle(TRequest, RequestHandlerDelegate&amp;lt;TResponse&amp;gt;, CancellationToken): Task&amp;lt;TResponse&amp;gt;&lt;/p&gt;" style="verticalAlign=top;align=left;overflow=fill;html=1;whiteSpace=wrap;" vertex="1" parent="h7EgRy8KijaexqdkXfog-46">
          <mxGeometry x="1160" y="2620" width="580" height="120" as="geometry" />
        </mxCell>
        <mxCell id="zdqjPkPiRwQ45EChuNNf-41" value="&lt;p style=&quot;margin:0px;margin-top:4px;text-align:center;&quot;&gt;&lt;b&gt;+ TransactionBehavior&amp;lt;TRequest, TResponse&amp;gt;&lt;/b&gt;&lt;/p&gt;&lt;hr size=&quot;1&quot; style=&quot;border-style:solid;&quot;&gt;&lt;p style=&quot;margin:0px;margin-left:4px;&quot;&gt;&lt;span style=&quot;background-color: initial;&quot;&gt;- (r) _unitOfWork: IUnitOfWork&lt;/span&gt;&lt;br&gt;&lt;/p&gt;&lt;p style=&quot;margin:0px;margin-left:4px;&quot;&gt;&lt;br&gt;&lt;/p&gt;&lt;hr size=&quot;1&quot; style=&quot;border-style:solid;&quot;&gt;&lt;p style=&quot;margin:0px;margin-left:4px;&quot;&gt;+ Handle(TRequest, RequestHandlerDelegate&amp;lt;TResponse&amp;gt;, CancellationToken): Task&amp;lt;TResponse&amp;gt;&lt;/p&gt;" style="verticalAlign=top;align=left;overflow=fill;html=1;whiteSpace=wrap;" vertex="1" parent="h7EgRy8KijaexqdkXfog-46">
          <mxGeometry x="530" y="2790" width="580" height="110" as="geometry" />
        </mxCell>
        <mxCell id="zdqjPkPiRwQ45EChuNNf-42" value="&lt;p style=&quot;margin:0px;margin-top:4px;text-align:center;&quot;&gt;&lt;b&gt;+ ValidationBehavior&amp;lt;TRequest, TResponse&amp;gt;&lt;/b&gt;&lt;/p&gt;&lt;hr size=&quot;1&quot; style=&quot;border-style:solid;&quot;&gt;&lt;p style=&quot;margin:0px;margin-left:4px;&quot;&gt;&lt;span style=&quot;background-color: initial;&quot;&gt;- (r) _validators: IEnumerable&amp;lt;IValidator&amp;lt;TRequest&amp;gt;&amp;gt;&lt;/span&gt;&lt;br&gt;&lt;/p&gt;&lt;p style=&quot;margin:0px;margin-left:4px;&quot;&gt;&lt;br&gt;&lt;/p&gt;&lt;hr size=&quot;1&quot; style=&quot;border-style:solid;&quot;&gt;&lt;p style=&quot;margin:0px;margin-left:4px;&quot;&gt;+ Handle(TRequest, RequestHandlerDelegate&amp;lt;TResponse&amp;gt;, CancellationToken): Task&amp;lt;TResponse&amp;gt;&lt;/p&gt;" style="verticalAlign=top;align=left;overflow=fill;html=1;whiteSpace=wrap;" vertex="1" parent="h7EgRy8KijaexqdkXfog-46">
          <mxGeometry x="1160" y="2790" width="580" height="110" as="geometry" />
        </mxCell>
      </root>
    </mxGraphModel>
  </diagram>
</mxfile>
